<?xml version="1.0" encoding="utf-8"?>
<!-- Generator: Adobe Illustrator 21.0.0, SVG Export Plug-In . SVG Version: 6.00 Build 0)  -->
<svg version="1.1" id="Layer_1" xmlns="http://www.w3.org/2000/svg" xmlns:xlink="http://www.w3.org/1999/xlink" x="0px" y="0px"
	 viewBox="0 0 44.7 44.7" style="enable-background:new 0 0 44.7 44.7;" xml:space="preserve">
<style type="text/css">
	.st0{fill:#E2854C;}
	.st1{fill:#356178;}
	.st2{fill:#2D5266;}
	.st3{fill:#4681A0;}
	.st4{fill:#3D718C;}
	.st5{fill:#90B3C6;}
	.st6{fill:#86A6B8;}
	.st7{fill:#F5F5F5;}
	.st8{fill:#242424;}
	.st9{fill:#E78244;}
	.st10{fill:#D97A40;}
</style>
<g id="XMLID_1_">
	<path id="XMLID_5_" class="st0" d="M18.7,42v-4.7c0-0.7-0.3-1.2-1-1.2s-1,0.6-1,1.2V42H18.7z"/>
	<path id="XMLID_6_" class="st0" d="M22.8,42v-4.7c0-0.7-0.3-1.2-1-1.2s-1,0.6-1,1.2V42H22.8z"/>
	<path id="XMLID_7_" class="st1" d="M22.5,38.1L22.5,38.1c-5,0-11.1-1.6-17.6-4.6c-0.5-0.2-0.8-0.8-0.7-1.4c0.1-0.6,0.6-1,1.2-1
		c8.4,0,11.6-7.5,14.7-14.8C22.9,9.7,26,2.9,32.9,2.9c3.6,0,7.6,2,10.2,4.1c-0.5,0-2.1,0.4-2.6,0.6c-2.4,0.6-2.6,4.8-2.9,9.7
		c-0.3,5.3-0.7,11.2-3.8,15.9C31.6,36.3,27.7,38.1,22.5,38.1z"/>
	<path id="XMLID_8_" class="st2" d="M40.5,7.5L40.5,7.5c-9.8-0.2-3.9,37.1-36.2,25.4c0.1,0.3,0.3,0.5,0.6,0.6
		c6.5,3,12.6,4.6,17.6,4.6c5.2,0,9-1.7,11.2-5c3.1-4.6,3.5-10.6,3.8-15.9C37.8,12.3,38.1,8.1,40.5,7.5z"/>
	<path id="XMLID_9_" class="st3" d="M37.3,16.6c-0.1-0.1-0.3-0.2-0.5-0.3c-1-0.3-2.1-0.5-3.2-0.5c-5.1,0-9.8,3.7-11.4,9.1
		c-1.2,4.2-0.5,8.5,2,11.9c0.1,0.1,0.1,0.2,0.2,0.2l1,0.8c3.7-0.5,6.6-2.2,8.3-4.8c3.1-4.6,3.5-10.6,3.8-15.9c0-0.1,0-0.2,0-0.3
		L37.3,16.6z"/>
	<path id="XMLID_10_" class="st4" d="M37.3,16.6c-0.1-0.1-0.3-0.2-0.5-0.3c-0.8-0.3-1.7-0.4-2.6-0.5c-2.3,6.3-4.8,14.5-11.7,17.8
		c0.4,1.1,1,2.2,1.7,3.2c0.1,0.1,0.1,0.2,0.2,0.2l1,0.8c2.8-0.4,5.1-1.4,6.8-3l0,0c0.3-0.2,0.5-0.5,0.7-0.8l0.1-0.1
		c0.2-0.3,0.4-0.6,0.6-0.8c3.1-4.6,3.5-10.6,3.8-15.9c0-0.1,0-0.2,0-0.3L37.3,16.6z"/>
	<path id="XMLID_11_" class="st5" d="M23.6,26.6c1.6-5.3,6.3-9.1,11.4-9.1c0.8,0,1.7,0.1,2.5,0.3c0-0.2,0-0.4,0-0.6
		c0-0.1,0-0.2,0-0.3l-0.2-0.2c-0.1-0.1-0.3-0.2-0.5-0.3c-1-0.3-2.1-0.5-3.2-0.5c-5.1,0-9.8,3.7-11.4,9.1c-1.2,4.2-0.5,8.5,2,11.9
		c0.1,0.1,0.1,0.2,0.2,0.2l0.4,0.4C23,34.2,22.5,30.3,23.6,26.6z"/>
	<path id="XMLID_12_" class="st6" d="M24.3,36.8c0.1,0.1,0.1,0.2,0.2,0.2l0.4,0.4c-0.8-1.3-1.3-2.7-1.6-4.1
		c-0.2,0.1-0.5,0.3-0.8,0.4C23,34.8,23.5,35.8,24.3,36.8z"/>
	<path id="XMLID_13_" class="st6" d="M37.3,16.6c-0.1-0.1-0.3-0.2-0.5-0.3c-0.8-0.3-1.7-0.4-2.6-0.5c-0.2,0.6-0.4,1.2-0.6,1.8
		c0.5-0.1,0.9-0.1,1.4-0.1c0.8,0,1.7,0.1,2.5,0.3c0-0.2,0-0.4,0-0.6c0-0.1,0-0.2,0-0.3L37.3,16.6z"/>
	<circle id="XMLID_14_" class="st7" cx="32.7" cy="8.8" r="2.5"/>
	<circle id="XMLID_15_" class="st8" cx="32.7" cy="8.8" r="1.2"/>
	<path id="XMLID_16_" class="st9" d="M38,7c0,0.9,0.2,1.8,0.6,2.6c0.4-1.1,1-1.8,1.9-2C41,7.5,42.6,7,43.1,7c-1.2-1-2.8-1.9-4.4-2.7
		C38.2,5.1,38,6,38,7z"/>
	<path id="XMLID_17_" class="st10" d="M38.2,8.3c0.1,0.4,0.2,0.8,0.4,1.2l0,0c0.1-0.1,0.1-0.3,0.2-0.4c0-0.1,0.1-0.1,0.1-0.2
		c0-0.1,0.1-0.2,0.1-0.2c0-0.1,0.1-0.1,0.1-0.2c0.1-0.1,0.1-0.2,0.2-0.2l0.1-0.1c0.1-0.1,0.2-0.2,0.3-0.3l0.1-0.1
		C39.9,7.7,40,7.7,40,7.6l0.1-0.1c0.1-0.1,0.2-0.1,0.4-0.1h0.1C39.6,7.5,38.9,7.8,38.2,8.3z"/>
</g>
<path class="st5" d="M28.2,17.6c0,0-22.4,1.9-24.3-4c0.8,4.5,5.4,17.6,18,15"/>
</svg>
