<?xml version="1.0" encoding="utf-8"?>
<!-- Generator: Adobe Illustrator 21.0.0, SVG Export Plug-In . SVG Version: 6.00 Build 0)  -->
<svg version="1.1" id="Layer_1" xmlns="http://www.w3.org/2000/svg" xmlns:xlink="http://www.w3.org/1999/xlink" x="0px" y="0px"
	 viewBox="0 0 349.1 168.3" style="enable-background:new 0 0 349.1 168.3;" xml:space="preserve">
<style type="text/css">
	.st0{fill:#2CAA67;}
	.st1{fill:#016631;}
	.st2{fill:#2DAA67;}
	.st3{fill:#D6D8D7;}
	.st4{fill:#046834;}
	.st5{fill:#036833;}
	.st6{fill:#D5D7D6;}
	.st7{fill:#5B5444;}
	.st8{fill:#5D5545;}
	.st9{fill:#DBDFCB;}
	.st10{fill:#DCDFCC;}
	.st11{fill:#DAD2C2;}
</style>
<g>
	<path class="st0" d="M168.4,47.5c0.4,0.7,0.7,1.4,1.1,2c2.6,1.8,2.9,4.8,4,7.3c0.4,3.2,2.4,4.4,5.5,4.4c3.8,0,7.6-0.4,11.4,0.4
		c5,1.6,10.2,0.5,15.3,0.7c7.2,0.2,14.3,0,21.5,0c0.7-0.4,1.3-0.8,2.1-1c2.5-0.3,5.1-0.1,7.6-0.5c1.9-0.1,3.8,0.4,5.7,0.4
		c0.5,0,0.9,0,1.4,0c0.7,0,1.4,0.2,2,0.6c5.3,1,10.6,0.4,15.9,0.4c3.9,0,5.2,1.4,5,5.4c-2.3,47-33.4,83.3-79.3,92.3
		c-52.8,10.3-105.7-28.3-112.2-81.8c-0.4-3.6-0.5-7.3-0.9-10.9c-0.5-3.9,1.3-5,4.9-4.9c10.3,0.1,20.6,0.1,31,0.2
		c2.7-2,5.7-1.2,8.7-1.4c2.8-0.1,5.7-0.2,8.5,0c4.8,0.5,7.6-1.4,8.6-6.1c0.4-1.9,1.1-3.8,2.5-5.4c1.2-1.2,2.8-1.6,4.2-2.6
		c2.6-1.9,5.1-1.9,7.7,0.1c1.8,1.4,3.9,2.7,5.8,0.9C160.1,44.5,164.2,45.9,168.4,47.5z"/>
	<path class="st1" d="M139.5,49.5c-0.4,1.1-0.9,2.1-1.3,3.2c-3.4,9.9-3.4,9.9-14.2,9.9c-4.6,0-9.3,0-13.9,0
		c2-10.7,4.1-21.3,7.3-31.6c4.2-4.6,4.2-4.6,9.5-0.8c0.9,0.7,2.1,1.1,2.7,0.3c3.6-4.3,7.6-2.5,11.6-0.9c1,2.7,1.9,5.4,2.9,8.1
		C144.3,42.3,142.2,46,139.5,49.5z"/>
	<path class="st2" d="M231.6,35.5c2.5-6.8,1.5-14.4,4.5-21.8c3.8,6.5,2.7,13.8,5.3,20c2.3,3.8,1.5,8.3,2.3,12.4
		c0.4,1.9,0.3,3.9,1,5.8c0.2,0.5,0.3,1.1,0.3,1.6c-0.3,1.9-0.2,3.8-1.4,5.5c-1.7,1.7-3.8,2-6.1,1.7c-3.6,0.5-6.4-0.9-8.4-3.9
		c-0.2-0.5-0.2-1.1,0-1.6c1.7-5.4,0.5-11.1,1.7-16.5C231,37.6,230.6,36.4,231.6,35.5z"/>
	<path class="st3" d="M139.5,49.5c0.9-4.2,3.3-7.8,4.7-11.8c0.2-0.1,0.3-0.1,0.4-0.2c8.4-8.9,15-7.9,20.7,3.3c1.1,2.2,2,4.5,3,6.8
		c-0.9,0.3-2.2,1.1-2.7,0.7c-3.7-2.3-6.6-1.9-9.3,1.7c-1.1,1.5-3.7,1.3-4.9-0.2c-3.1-3.8-6.1-4-9.5-0.5
		C141.5,49.7,140.3,49.5,139.5,49.5z"/>
	<path class="st3" d="M141.3,29.6c-1.2,0.7-2.3,2.7-3.8,0.4c-2.2-3.3-4.1-1.5-5.8,0.5c-2.7,3.1-5,3.8-6.6-1c-0.8-2.3-2.2-2.7-4-0.9
		c-1,1-2,2.2-3.6,2.3c2.1-5.5,3.3-11.5,7.9-15.8c3.7-3.5,5.8-3.6,9.1,0.3C138,19.5,140,24.5,141.3,29.6z"/>
	<path class="st4" d="M231.6,35.5c0.8,6.4-0.6,12.8-0.7,19.2c0,0.4-1,0.7-1.5,1c-1,0.9-2,0.6-3,0.2c-1.7-0.2-4.1,0.6-4-2.4
		c0.6-11.2,1.3-22.3,2.7-33.6C228.8,24.6,230.2,30,231.6,35.5z"/>
	<path class="st5" d="M244.3,52.7c-1.4-0.2-1.8-1.1-1.9-2.4c-0.3-5.5-0.7-11-1.1-16.6c0.9-3.5,1.8-6.9,2.9-10.9
		c2.4,1.8,2.7,4,3.2,5.9c1.9,6.7,3.4,13.5,4.1,20.4c0.2,1.7,0.9,3.9-2.2,3.7C247.6,53.1,245.9,53.8,244.3,52.7z"/>
	<path class="st4" d="M190.3,61.7c-4.9,2-10.1,0.9-15.1,0.7c-3.3-0.1-2.8-3.5-3-5.9c5.8-4.9,8.1-5,15.1-1
		C188.4,57.6,189.3,59.7,190.3,61.7z"/>
	<path class="st6" d="M187.4,55.6c-5.2-2.7-10.2-1.2-15.1,1c-1.5-2.1-2.1-4.6-2.8-7C176.3,44.3,181.9,46.1,187.4,55.6z"/>
	<path class="st7" d="M244.3,52.7c1.7,0,3.3,0.1,5,0.1c-2.4,0.4-3.7,1.6-3.3,4.3c0.2,1.6,0,3.3-0.1,4.9c-0.5,0.1-1.1,0.3-1.6,0.4
		c-1.7-2.9-0.1-5.9,0-8.8C244.3,53.3,244.3,53,244.3,52.7z"/>
	<path class="st8" d="M226.4,55.9c1-0.1,2-0.1,3-0.2c0,0.3,0,0.5,0.1,0.8c1.2,2.1,1.7,4.1-0.2,6c-0.7,0-1.3,0-2,0
		C227.1,60.2,228.3,57.9,226.4,55.9z"/>
	<path class="st9" d="M229.2,62.5c0.1-2,0.2-4,0.2-6c2.3,2,4.9,3.1,7.9,3.5c0.5,0.5,0.6,1,0,1.6C234.8,63.6,231.9,62.3,229.2,62.5z"
		/>
	<path class="st10" d="M237.4,61.6c0-0.5,0-1,0-1.6c2-0.6,3.9-1.1,5.9-1.7c0.9,1.3,0.8,2.7,0.1,4C241.3,62.7,239.2,63.1,237.4,61.6z
		"/>
	<path class="st11" d="M243.3,62.4c0-1.3-0.1-2.7-0.1-4c0.4-1.6-0.9-3.5,1-4.8c0,2.9,0,5.9,0,8.8h-0.5H243.3z"/>
</g>
</svg>
