<?xml version="1.0" encoding="utf-8"?>
<!-- Generator: Adobe Illustrator 21.0.0, SVG Export Plug-In . SVG Version: 6.00 Build 0)  -->
<svg version="1.1" id="Слой_1" xmlns="http://www.w3.org/2000/svg" xmlns:xlink="http://www.w3.org/1999/xlink" x="0px" y="0px"
	 viewBox="0 0 128 128" style="enable-background:new 0 0 128 128;" xml:space="preserve">
<g>
	<g>
		<path d="M64,115.5c-28.4,0-51.5-23.1-51.5-51.5S35.6,12.5,64,12.5s51.5,23.1,51.5,51.5S92.4,115.5,64,115.5z M64,15.5
			c-26.7,0-48.5,21.8-48.5,48.5s21.8,48.5,48.5,48.5s48.5-21.8,48.5-48.5S90.7,15.5,64,15.5z"/>
	</g>
	<g>
		<path d="M64.1,40v34.3c0,0-4.3,0-5.5,0c-4.3,0-7.9,3.5-7.9,7.9s3.5,7.9,7.9,7.9s7.9-3.5,7.9-7.9V50h10.8V40H64.1z"/>
	</g>
</g>
</svg>
