<?xml version="1.0" encoding="utf-8"?>
<!-- Generator: Adobe Illustrator 21.0.0, SVG Export Plug-In . SVG Version: 6.00 Build 0)  -->
<svg version="1.1" id="Layer_1" xmlns="http://www.w3.org/2000/svg" xmlns:xlink="http://www.w3.org/1999/xlink" x="0px" y="0px"
	 viewBox="0 0 287.8 359.1" style="enable-background:new 0 0 287.8 359.1;" xml:space="preserve">
<g>
	<path d="M-393.2,309.5c-16.8,18.8-36.6,31.7-63,30.2c-16-0.9-29.7-7.4-40-19.9c-11.6-14.1-13-38.9-3.3-56.2
		c10-17.9,26.2-24.2,45.9-23.1c13.9,0.8,26.6,5.6,38.9,12c1.5,0.8,2.9,1.5,5.2,2.6c9.6-71.3,19.1-142,28.7-213.2
		c8.5,1.4,16.3,2.6,24.1,4.2c1.3,0.3,2.5,2.4,3.1,3.9c4.1,10.4,7.9,20.9,11.9,31.3c4,10.4,10.1,19.3,18.1,27.2
		c21.6,21.8,35.3,47.8,39.5,78.5c4.6,33.8-14.2,71.4-44.1,87.8c-1.4,0.8-3,1.4-5.6,2.6c0.7-2.4,1.2-3.8,1.7-5.3
		c3.6-11.1,7.6-22.1,10.7-33.3c6.8-24.7,3-47.8-10.8-69.4c-9.8-15.3-22.2-28.2-36.2-40.7c-0.4,1.7-0.9,2.9-1,4.1"/>
</g>
<g>
	<path d="M55.7,346.2c-4-1.7-8.2-3.2-12.1-5.1c-12.1-5.6-20.3-14.7-25.3-27.2c-3.8-9.4-3.6-19.1-2-28.5c2-11.7,8.8-21.3,18.3-28.6
		c8.6-6.6,18.4-9.7,29.1-9.8c10.3-0.1,20.7-0.3,31,0c4.8,0.1,5.9-1.7,5.9-6.2c-0.1-52.2,0-104.3-0.1-156.5c0-4.1,0.4-6.5,5.3-8.3
		c19.4-7.3,38.5-15.4,57.7-23.4c16.1-6.7,32.1-13.6,48.2-20.3c17.2-7.1,34.4-14.1,51.7-21c1.8-0.7,3.8-0.9,6.3-1.5
		c0.3,2.3,0.7,4.2,0.7,6.1c0,73.5,0,147,0,220.5c0,22.4-9.9,38.9-29.9,48.1c-20.6,9.5-46.1,3.3-60-16.7c-7.7-11-10.7-23.4-8.4-36.3
		c2.8-15.7,11.1-28.2,25.7-35.8c7.6-4,15.7-5.9,24.4-5.6c9.7,0.3,19.3-0.1,29,0.1c3.8,0.1,5.4-0.9,5.4-5c-0.1-34,0-68,0-102
		c0-3.6-1-4.3-4.5-2.7c-7.3,3.4-14.8,6.3-22.3,9.4c-9.7,4-19.5,7.9-29.2,11.8c-12.1,4.9-24.1,9.8-36.2,14.7
		c-11.6,4.7-23.1,9.5-34.7,14.2c-3.2,1.3-6.2,3.2-9.5,4c-4.8,1.2-6.5,3.6-6.5,8.8c0.2,51.5,0.2,103,0,154.5
		c-0.1,17.6-9.4,30.4-23.3,39.9c-4.1,2.8-9.4,3.8-14,5.8c-1.3,0.5-2.4,1.6-3.6,2.4C67,346.2,61.4,346.2,55.7,346.2z"/>
</g>
</svg>
