<?xml version="1.0" encoding="utf-8"?>
<!-- Generator: Adobe Illustrator 21.0.0, SVG Export Plug-In . SVG Version: 6.00 Build 0)  -->
<svg version="1.1" xmlns="http://www.w3.org/2000/svg" xmlns:xlink="http://www.w3.org/1999/xlink" x="0px" y="0px"
	 viewBox="0 0 512 512" style="enable-background:new 0 0 512 512;" xml:space="preserve">
<style type="text/css">
	.st0{display:none;opacity:0.29;}
	.st1{display:inline;}
	.st2{fill:none;stroke:#000000;stroke-width:12;stroke-miterlimit:10;}
</style>
<g id="Слой_1" class="st0">
	<g id="local_network" class="st1">
		<path d="M480,282.7c-5.9,0-10.7,4.8-10.7,10.7c0,5.9,4.8,10.7,10.7,10.7c5.9,0,10.7-4.8,10.7-10.7
			C490.7,287.4,485.9,282.7,480,282.7z"/>
		<path d="M480,325.3c-5.9,0-10.7,4.8-10.7,10.7c0,5.9,4.8,10.7,10.7,10.7c5.9,0,10.7-4.8,10.7-10.7
			C490.7,330.1,485.9,325.3,480,325.3z"/>
		<path d="M480,368c-5.9,0-10.7,4.8-10.7,10.7c0,5.9,4.8,10.7,10.7,10.7c5.9,0,10.7-4.8,10.7-10.7C490.7,372.8,485.9,368,480,368z"
			/>
		<path d="M480,410.7c-5.9,0-10.7,4.8-10.7,10.7c0,5.9,4.8,10.7,10.7,10.7c5.9,0,10.7-4.8,10.7-10.7
			C490.7,415.4,485.9,410.7,480,410.7z"/>
		<path d="M480,453.3c-5.9,0-10.7,4.8-10.7,10.7c0,5.9,4.8,10.7,10.7,10.7c5.9,0,10.7-4.8,10.7-10.7
			C490.7,458.1,485.9,453.3,480,453.3z"/>
		<path d="M437.3,453.3c-5.9,0-10.7,4.8-10.7,10.7c0,5.9,4.8,10.7,10.7,10.7c5.9,0,10.7-4.8,10.7-10.7
			C448,458.1,443.2,453.3,437.3,453.3z"/>
		<path d="M394.7,453.3c-5.9,0-10.7,4.8-10.7,10.7c0,5.9,4.8,10.7,10.7,10.7s10.7-4.8,10.7-10.7
			C405.3,458.1,400.5,453.3,394.7,453.3z"/>
		<path d="M352,453.3c-5.9,0-10.7,4.8-10.7,10.7c0,5.9,4.8,10.7,10.7,10.7s10.7-4.8,10.7-10.7C362.7,458.1,357.9,453.3,352,453.3z"
			/>
		<path d="M309.3,453.3c-5.9,0-10.7,4.8-10.7,10.7c0,5.9,4.8,10.7,10.7,10.7S320,469.9,320,464C320,458.1,315.2,453.3,309.3,453.3z"
			/>
		<path d="M266.7,453.3c-5.9,0-10.7,4.8-10.7,10.7c0,5.9,4.8,10.7,10.7,10.7c5.9,0,10.7-4.8,10.7-10.7
			C277.3,458.1,272.5,453.3,266.7,453.3z"/>
		<path d="M490.7,16H192c-11.8,0-21.3,9.6-21.3,21.3v160H21.3C9.6,197.3,0,206.9,0,218.7v202.7c0,11.8,9.6,21.3,21.3,21.3h100.5
			l-9.1,32h-6.1c-5.9,0-10.7,4.8-10.7,10.7c0,5.9,4.8,10.7,10.7,10.7h128c5.9,0,10.7-4.8,10.7-10.7c0-5.9-4.8-10.7-10.7-10.7h-6.1
			l-9.1-32H320c11.8,0,21.3-9.5,21.3-21.3V314.7h64c5.9,0,10.7-4.8,10.7-10.7c0-5.9-4.8-10.7-10.7-10.7h-6.1l-9.1-32h100.6
			c11.8,0,21.3-9.6,21.3-21.3V37.3C512,25.6,502.4,16,490.7,16z M134.9,474.7l9.1-31.9l53.2,0l9.1,31.9L134.9,474.7L134.9,474.7z
			 M490.7,37.3v160H320H192v-160H490.7z M186.6,218.7H320v160H21.3v-160H186.6z M170.7,421.3H21.3V400h149.3H320v21.3H170.7z
			 M341.3,293.3v-31.9l26.6,0l9.1,32H341.3z M341.3,240v-21.3h149.3V240H341.3z"/>
		<path d="M181.3,410.7c0-5.9-4.8-10.7-10.7-10.7c-5.9,0-10.7,4.8-10.7,10.7c0,5.9,4.8,10.7,10.7,10.7
			C176.5,421.3,181.3,416.6,181.3,410.7z"/>
	</g>
</g>
<g id="Layer_2">
	<path class="st2" d="M181,210V40c0-6.6,5.4-12,12-12h293c6.6,0,12,5.4,12,12v202.5c0,6.6-5.4,12-12,12H328.5"/>
	<path class="st2" d="M498,209H181H498z"/>
	<circle class="st2" cx="340.3" cy="230" r="10"/>
	<path class="st2" d="M331,306h48.5c5.2,0,8.9-5.1,7.3-10L374,256h-44.5"/>
	<path class="st2" d="M317,435.5H24c-6.6,0-12-5.4-12-12V391V221c0-6.6,5.4-12,12-12h293c6.6,0,12,5.4,12,12v202.5
		C329,430.1,323.6,435.5,317,435.5z"/>
	<path class="st2" d="M329,390H12H329z"/>
	<circle class="st2" cx="171.3" cy="411" r="10"/>
	<circle class="st2" cx="266.7" cy="464.7" r="10"/>
	<circle class="st2" cx="309.3" cy="464.7" r="10"/>
	<circle class="st2" cx="352" cy="464.7" r="10"/>
	<circle class="st2" cx="394.7" cy="464.7" r="10"/>
	<circle class="st2" cx="437.4" cy="464.7" r="10"/>
	<circle class="st2" cx="480" cy="464.7" r="10"/>
	<circle class="st2" cx="480" cy="421" r="10"/>
	<circle class="st2" cx="480" cy="377.3" r="10"/>
	<circle class="st2" cx="480" cy="333.7" r="10"/>
	<circle class="st2" cx="480" cy="290" r="10"/>
	<path class="st2" d="M137,437l-12.8,40c-1.6,5,2.1,10,7.3,10h78.9c5.2,0,8.9-5.1,7.3-10L205,437H137z"/>
</g>
</svg>
